<svg width="63" height="50" viewBox="0 0 63 50" fill="none" xmlns="http://www.w3.org/2000/svg">
<path fill-rule="evenodd" clip-rule="evenodd" d="M47.9648 21.1379C47.9072 22.2095 46.9004 23.0519 45.68 23.0519H44.318C43.0964 23.0519 42.0896 22.2095 42.032 21.1379L41.876 18.2615C41.8148 17.1155 42.8552 16.1579 44.162 16.1579H45.8348C47.1416 16.1579 48.182 17.1155 48.1208 18.2615L47.9648 21.1379ZM20.1224 21.1379C20.0648 22.2095 19.0592 23.0519 17.8364 23.0519H16.4744C15.254 23.0519 14.2472 22.2095 14.1896 21.1379L14.0336 18.2615C13.9724 17.1155 15.0128 16.1579 16.3196 16.1579H17.9936C19.2992 16.1579 20.3408 17.1155 20.2784 18.2615L20.1224 21.1379ZM52.4564 19.4291C52.0266 18.4984 51.4789 17.6269 50.8268 16.8359C49.8908 15.7115 48.5528 14.5703 46.6988 13.9679C45.7862 13.6762 44.8333 13.5304 43.8752 13.5359C41.6708 13.5359 39.716 14.7527 37.7624 16.0151C37.7624 16.0151 34.4888 15.7871 31.412 15.7871C28.3424 15.7871 25.0376 16.0151 25.0376 16.0151C23.084 14.7527 21.1292 13.5359 18.9248 13.5359C17.8736 13.5359 16.9364 13.6991 16.1024 13.9679C14.2472 14.5703 12.908 15.7115 11.9732 16.8359C11.3209 17.6263 10.7731 18.4974 10.3436 19.4279C9.24801 21.7991 6.84321 26.9471 5.68521 35.5559C5.27721 38.6423 4.74561 45.8975 8.10921 48.1511C9.17721 48.8675 14.426 49.5263 14.9024 49.2551C16.2212 48.5111 17.5616 42.4955 19.5164 39.3395V39.3179C19.9592 38.5643 20.2388 38.1275 20.9696 37.6943C21.7232 37.2491 22.9016 37.3343 24.9464 37.3343H37.8536C39.8984 37.3343 41.0768 37.2491 41.8304 37.6943C42.5612 38.1263 42.8408 38.5643 43.2836 39.3179V39.3395C45.2384 42.4955 46.5788 48.5123 47.8976 49.2551C48.374 49.5263 53.624 48.8675 54.692 48.1511C58.0544 45.8975 57.524 38.6423 57.116 35.5559C55.9568 26.9471 53.552 21.7991 52.4564 19.4279V19.4291ZM50.36 0.117493L48.1244 3.28549C50.6468 3.76509 53.04 4.76974 55.1489 6.23424C57.2578 7.69875 59.0352 9.59036 60.3656 11.7863L62.6 8.61829C59.6375 4.44272 55.3073 1.43536 50.36 0.117493ZM46.226 5.97589L43.9892 9.14389C46.5113 9.62322 48.9044 10.6276 51.0132 12.092C53.1219 13.5563 54.899 15.4477 56.2292 17.6435L58.466 14.4755C55.5034 10.3002 51.1732 7.29326 46.226 5.97589ZM18.812 9.25429L16.5764 6.08629C11.6292 7.40434 7.29911 10.4117 4.33641 14.5871L6.57081 17.7551C7.90102 15.559 9.6783 13.6672 11.7872 12.2027C13.8962 10.7381 16.2896 9.7336 18.812 9.25429ZM14.6768 3.39589L12.4412 0.227893C7.49325 1.54631 3.1626 4.55454 0.200012 8.73109L2.43681 11.8991C3.76688 9.70297 5.54396 7.81113 7.65266 6.34641C9.76136 4.88169 12.1545 3.87564 14.6768 3.39589Z" fill="white"/>
</svg>
