<svg width="58" height="41" viewBox="0 0 58 41" fill="none" xmlns="http://www.w3.org/2000/svg">
<path fill-rule="evenodd" clip-rule="evenodd" d="M57.2 30.1459V33.7447C57.2011 34.6926 57.015 35.6313 56.6522 36.507C56.2895 37.3828 55.7573 38.1782 55.0863 38.8477C54.4153 39.5171 53.6186 40.0474 52.742 40.4081C51.8655 40.7688 50.9263 40.9528 49.9784 40.9495H48.8C48.1642 40.9476 47.5551 40.6936 47.1063 40.2432C46.6575 39.7929 46.4057 39.1829 46.406 38.5471V24.3103C46.406 14.6995 38.6156 6.90908 29.006 6.90908C19.394 6.90908 11.6036 14.6995 11.6036 24.3103V38.5471C11.6038 38.8624 11.5418 39.1747 11.4213 39.4661C11.3008 39.7575 11.124 40.0222 10.9012 40.2453C10.6783 40.4684 10.4137 40.6454 10.1224 40.7662C9.83114 40.8871 9.51893 40.9493 9.2036 40.9495H7.9976C7.05175 40.9496 6.11514 40.7633 5.24135 40.4012C4.36755 40.0391 3.57371 39.5083 2.90523 38.8392C2.23674 38.17 1.70673 37.3756 1.3455 36.5015C0.984262 35.6273 0.798896 34.6905 0.8 33.7447V30.1459C0.800451 28.4343 1.41164 26.779 2.52362 25.4779C3.63561 24.1767 5.17539 23.315 6.866 23.0479C6.866 10.8259 16.772 0.917477 28.9964 0.917477C41.2184 0.917477 51.1268 10.8259 51.1268 23.0479C52.8195 23.3119 54.3619 24.1724 55.4757 25.4741C56.5894 26.7758 57.201 28.4328 57.2 30.1459ZM19.3892 34.8919H20.8568C22.6028 34.8919 24.176 35.2771 24.176 36.7771C24.176 38.1211 23.1032 38.7523 21.62 38.7523C20.4478 38.7281 19.295 38.4484 18.242 37.9327L17.57 40.0639C18.8852 40.6639 20.3132 40.9711 21.758 40.9651C24.6188 40.9651 26.9636 39.7027 26.9636 36.8179C26.981 36.0509 26.7198 35.3037 26.2284 34.7146C25.737 34.1255 25.0488 33.7344 24.2912 33.6139C24.9849 33.4312 25.5954 33.0171 26.0216 32.4401C26.4479 31.8631 26.6642 31.1578 26.6348 30.4411C26.6348 27.9091 24.4628 26.8351 21.9632 26.8351C20.5759 26.8152 19.2006 27.0947 17.9312 27.6547L18.6272 29.8267C19.5658 29.3444 20.6044 29.0888 21.6596 29.0803C22.9472 29.0803 23.8316 29.6383 23.8316 30.7939C23.8316 32.2111 22.5044 32.6539 20.8892 32.6539H19.3892V34.8919ZM29.4872 40.7275H34.1516C38.6432 40.7275 41.0696 38.0563 41.0696 33.8095C41.0696 29.5639 38.6672 27.0151 34.1516 27.0151H29.4872V40.7275ZM32.2904 29.2531H33.7496C36.8816 29.2531 38.2664 31.0975 38.2664 33.8431C38.2664 36.5887 36.8648 38.4823 33.7664 38.4823H32.3072L32.2904 29.2531Z" fill="white"/>
</svg>
