<svg width="63" height="50" viewBox="0 0 63 50" fill="none" xmlns="http://www.w3.org/2000/svg">
<path fill-rule="evenodd" clip-rule="evenodd" d="M48.3476 14.7671C47.7476 14.1623 47.7476 13.1867 48.3476 12.5831L51.29 9.63108C51.4319 9.4865 51.6012 9.37164 51.788 9.29324C51.9747 9.21483 52.1753 9.17445 52.3778 9.17445C52.5804 9.17445 52.7809 9.21483 52.9677 9.29324C53.1545 9.37164 53.3238 9.4865 53.4656 9.63108C54.0656 10.2359 54.0656 11.2115 53.4656 11.8151L50.5232 14.7671C50.3814 14.9117 50.2121 15.0265 50.0253 15.1049C49.8385 15.1833 49.638 15.2237 49.4354 15.2237C49.2329 15.2237 49.0323 15.1833 48.8456 15.1049C48.6588 15.0265 48.4895 14.9117 48.3476 14.7671ZM62.6 31.6967C62.6 30.8447 61.91 30.1547 61.058 30.1547H56.882C56.0312 30.1547 55.3412 30.8447 55.3412 31.6967C55.3379 31.9013 55.3753 32.1045 55.4513 32.2945C55.5273 32.4845 55.6404 32.6575 55.7839 32.8034C55.9274 32.9492 56.0985 33.0651 56.2873 33.1441C56.476 33.2232 56.6786 33.2639 56.8832 33.2639H61.0592C61.2638 33.2638 61.4662 33.2229 61.6548 33.1438C61.8434 33.0647 62.0144 32.9488 62.1578 32.8029C62.3012 32.6571 62.4142 32.4842 62.4901 32.2942C62.566 32.1043 62.6034 31.9012 62.6 31.6967ZM7.44924 31.6967C7.44924 30.8627 6.78684 30.1787 5.95164 30.1547H1.74204C0.890035 30.1547 0.200035 30.8447 0.200035 31.6967C0.196691 31.9013 0.234106 32.1045 0.3101 32.2945C0.386094 32.4845 0.499147 32.6575 0.642669 32.8034C0.786191 32.9492 0.957312 33.0651 1.14606 33.1441C1.3348 33.2232 1.5374 33.2639 1.74204 33.2639H5.95164C6.35725 33.2523 6.74194 33.0812 7.02228 32.7878C7.30263 32.4945 7.45603 32.1024 7.44924 31.6967ZM32.996 6.15228V1.95948C32.996 1.11108 32.3108 0.422283 31.4624 0.417483C31.0551 0.420019 30.6654 0.583598 30.3783 0.872505C30.0912 1.16141 29.93 1.55218 29.93 1.95948V6.13428C29.906 6.97908 30.566 7.68588 31.4096 7.71948C31.6158 7.71956 31.8199 7.67829 32.0099 7.59811C32.1998 7.51793 32.3718 7.40047 32.5156 7.25268C32.6593 7.10488 32.772 6.92976 32.8469 6.73766C32.9218 6.54556 32.9574 6.34039 32.9516 6.13428L32.996 6.15228ZM14.4536 14.7671C15.0536 14.1623 15.0536 13.1867 14.4536 12.5831L11.5112 9.63108C11.3694 9.4865 11.2001 9.37164 11.0133 9.29324C10.8265 9.21483 10.626 9.17445 10.4234 9.17445C10.2209 9.17445 10.0203 9.21483 9.83356 9.29324C9.64678 9.37164 9.47751 9.4865 9.33564 9.63108C8.73564 10.2359 8.73564 11.2115 9.33564 11.8151L12.278 14.7671C12.4199 14.9117 12.5892 15.0265 12.776 15.1049C12.9627 15.1833 13.1633 15.2237 13.3658 15.2237C13.5684 15.2237 13.7689 15.1833 13.9557 15.1049C14.1425 15.0265 14.3118 14.9117 14.4536 14.7671ZM10.208 23.5043L10.568 22.6235C10.6466 22.4306 10.6861 22.224 10.6843 22.0157C10.6826 21.8074 10.6396 21.6015 10.5578 21.4099C10.476 21.2183 10.3571 21.0449 10.2078 20.8995C10.0586 20.7542 9.88209 20.6398 9.68843 20.5631L3.65364 18.0695C3.4611 17.9923 3.25522 17.9538 3.04779 17.9563C2.84037 17.9588 2.63548 18.0022 2.44485 18.0841C2.25423 18.1659 2.08163 18.2845 1.93694 18.4332C1.79224 18.5818 1.6783 18.7575 1.60164 18.9503L1.23924 19.8311C1.1617 20.0243 1.12297 20.2309 1.12527 20.439C1.12757 20.6472 1.17086 20.8529 1.25265 21.0443C1.33444 21.2357 1.45313 21.4092 1.60196 21.5548C1.75079 21.7003 1.92683 21.8152 2.12004 21.8927L8.15484 24.3767C8.34942 24.4541 8.55754 24.4918 8.76694 24.4876C8.97633 24.4833 9.18274 24.4371 9.374 24.3518C9.56525 24.2664 9.73748 24.1437 9.88052 23.9907C10.0236 23.8377 10.1345 23.6576 10.2068 23.4611V23.5043H10.208ZM42.5792 9.93948L45.0548 3.90588C45.1324 3.71268 45.1711 3.5061 45.1688 3.29794C45.1665 3.08977 45.1232 2.8841 45.0414 2.69266C44.9596 2.50122 44.8409 2.32776 44.6921 2.1822C44.5433 2.03664 44.3672 1.92181 44.174 1.84428L43.2932 1.48428C43.1009 1.40589 42.8949 1.36649 42.6872 1.36835C42.4795 1.37022 42.2743 1.41332 42.0834 1.49515C41.8925 1.57698 41.7197 1.69591 41.5752 1.84504C41.4306 1.99417 41.3171 2.17053 41.2412 2.36388L38.7656 8.39748C38.687 8.59056 38.6473 8.79732 38.6491 9.00581C38.6508 9.21429 38.6939 9.42036 38.7758 9.61209C38.8577 9.80382 38.9769 9.9774 39.1263 10.1228C39.2757 10.2682 39.4525 10.3825 39.6464 10.4591L40.5272 10.8287C40.7203 10.9057 40.9267 10.9437 41.1345 10.9406C41.3423 10.9376 41.5474 10.8934 41.7381 10.8108C41.9288 10.7282 42.1013 10.6086 42.2457 10.4591C42.39 10.3096 42.5034 10.133 42.5792 9.93948ZM22.2056 10.8203L23.0864 10.4507C23.2807 10.3732 23.4576 10.2581 23.6071 10.1119C23.7567 9.96572 23.8758 9.79141 23.9577 9.599C24.0395 9.4066 24.0825 9.19989 24.0842 8.9908C24.0858 8.78171 24.0461 8.57435 23.9672 8.38068L21.4568 2.35548C21.3811 2.16202 21.2677 1.98554 21.1232 1.83628C20.9786 1.68702 20.8059 1.56796 20.615 1.48602C20.4241 1.40407 20.2188 1.36087 20.0111 1.35892C19.8033 1.35698 19.5972 1.39633 19.4048 1.47468L18.5228 1.84428C18.3289 1.92089 18.1521 2.0352 18.0027 2.18058C17.8533 2.32597 17.7341 2.49955 17.6522 2.69128C17.5703 2.883 17.5272 3.08907 17.5255 3.29756C17.5237 3.50605 17.5633 3.71281 17.642 3.90588L20.144 9.93948C20.2179 10.1357 20.3304 10.3151 20.4749 10.4671C20.6193 10.6191 20.7928 10.7406 20.985 10.8244C21.1772 10.9082 21.3842 10.9526 21.5939 10.955C21.8036 10.9573 22.0116 10.9177 22.2056 10.8383V10.8203ZM23.606 36.3647C22.4992 36.0573 21.3537 35.9118 20.2052 35.9327C17.9324 35.9327 15.5732 36.9995 15.5732 39.8003C15.5732 41.8619 17.1308 42.8567 19.0952 43.6403C20.7248 44.2835 21.3068 44.6807 21.3068 45.4031C21.3068 46.1255 20.7068 46.5827 19.3604 46.5827C18.2526 46.5575 17.1556 46.3583 16.1096 45.9923L15.6428 48.5555C16.9076 48.9407 18.2228 49.1339 19.5452 49.1291C22.1876 49.1291 24.4424 47.8247 24.4424 45.2795C24.4508 42.9539 22.9004 42.0731 20.9276 41.2715C19.4036 40.6367 18.6548 40.2935 18.6548 39.5099C18.6548 38.7263 19.4744 38.4443 20.4164 38.4443C21.3137 38.4453 22.2054 38.585 23.06 38.8583L23.606 36.3647ZM33.5684 36.3647C32.4588 36.0569 31.3105 35.9114 30.1592 35.9327C27.8864 35.9327 25.526 36.9995 25.526 39.8003C25.526 41.8619 27.086 42.8567 29.0492 43.6403C30.6788 44.2835 31.2692 44.6807 31.2692 45.4031C31.2692 46.1255 30.6176 46.6535 29.3048 46.6535C28.2 46.6296 27.1059 46.4304 26.0636 46.0631L25.5608 48.5555C26.8256 48.9407 28.1408 49.1339 29.4632 49.1291C32.1056 49.1291 34.3604 47.8247 34.3604 45.2795C34.3604 42.9275 32.8544 42.1079 30.8996 41.2715C29.3756 40.6367 28.6352 40.2935 28.6352 39.5099C28.6352 38.7263 29.4452 38.4443 30.3968 38.4443C31.2944 38.4443 32.1848 38.5847 33.0392 38.8583L33.5684 36.3647ZM36.0164 48.8639H40.6844C44.9564 48.8639 47.1416 46.3715 47.1416 42.4163C47.1416 38.4611 44.9756 36.1451 40.6856 36.1451H36.0176V48.8651L36.0164 48.8639ZM39.1172 38.6195H40.2356C42.9668 38.6195 44.0324 40.2227 44.0324 42.4871C44.0324 44.7503 42.9488 46.4771 40.2356 46.4771H39.1172V38.6195ZM57.9236 20.3867C58.0916 20.3747 58.2596 20.3747 58.4252 20.3867C58.908 20.3751 59.3866 20.4785 59.8216 20.6881C60.2566 20.8978 60.6355 21.2078 60.9272 21.5927C61.5296 21.1679 61.7576 20.3807 61.4732 19.6991L61.1036 18.8183C61.0279 18.6248 60.9145 18.4483 60.77 18.2991C60.6254 18.1498 60.4527 18.0308 60.2618 17.9488C60.0709 17.8669 59.8656 17.8237 59.6579 17.8217C59.4501 17.8198 59.244 17.8591 59.0516 17.9375L53.0264 20.4479C52.7179 20.5828 52.4591 20.8106 52.286 21.0995L57.9236 20.3867ZM58.5404 24.0767C59.9408 23.6447 59.6324 22.2095 58.1792 22.3943L31.1456 25.7783C30.4064 25.8743 29.8424 26.4023 29.9576 26.9135L30.4496 29.2391L30.9428 31.5647C31.058 32.0759 31.8236 32.3303 32.5028 32.1107L58.5404 24.0767Z" fill="white"/>
</svg>
