<svg width="58" height="40" viewBox="0 0 58 40" fill="none" xmlns="http://www.w3.org/2000/svg">
<path fill-rule="evenodd" clip-rule="evenodd" d="M56.8712 24.1823C56.1422 18.0756 54.4398 12.125 51.8288 6.55669C51.0896 4.91389 48.5432 0.117487 42.5312 0.117487C40.1408 0.117487 38.0216 1.44829 35.9024 2.82829C35.9024 2.82829 32.3552 2.57389 29.012 2.57389C25.6688 2.57389 22.1048 2.82829 22.1048 2.82829C19.9856 1.44829 17.8664 0.117487 15.476 0.117487C9.50481 0.117487 6.91761 4.93909 6.17841 6.55669C3.56411 12.1245 1.85851 18.075 1.12641 24.1823C0.683613 27.5579 0.108813 35.4839 3.75561 37.9487C4.91361 38.7695 10.6052 39.4511 11.1476 39.1559C12.5684 38.3339 14.0228 31.7639 16.142 28.3223C16.484 27.5904 17.032 26.9741 17.7188 26.5487C18.5396 26.0555 19.8128 26.1539 22.0304 26.1539H35.9936C38.2112 26.1539 39.4844 26.0555 40.3052 26.5487C40.9916 26.9735 41.5412 27.5903 41.882 28.3223C43.994 31.7723 45.446 38.3423 46.8764 39.1559C47.3924 39.4511 53.0852 38.7359 54.2684 37.9487C57.89 35.4839 57.314 27.5579 56.8712 24.1823ZM15.8048 13.2743H13.1432C12.9735 13.2237 12.8247 13.1198 12.7189 12.9778C12.613 12.8359 12.5559 12.6635 12.5559 12.4865C12.5559 12.3094 12.613 12.1371 12.7189 11.9952C12.8247 11.8532 12.9735 11.7492 13.1432 11.6987H15.7712C15.9262 11.7012 16.0798 11.6702 16.2217 11.6079C16.3635 11.5455 16.4903 11.4533 16.5932 11.3375L18.236 9.54589C18.7826 8.94944 19.5396 8.58865 20.3471 8.53962C21.1546 8.49059 21.9497 8.75716 22.5644 9.28309L23.9852 10.4831C24.434 10.8599 25.0892 10.8599 25.538 10.4831L27.344 9.01309C27.8989 8.55849 28.5941 8.31007 29.3114 8.31007C30.0287 8.31007 30.7239 8.55849 31.2788 9.01309L33.1592 10.5071C33.6032 10.8815 34.2512 10.8815 34.6952 10.5071L36.2228 9.28309C36.8391 8.75649 37.6369 8.49181 38.4457 8.54563C39.2545 8.59944 40.0102 8.96748 40.5512 9.57109L42.1952 11.3447C42.404 11.5763 42.704 11.7047 43.016 11.6987H45.8576C46.0285 11.7482 46.1786 11.8518 46.2854 11.994C46.3923 12.1362 46.4501 12.3092 46.4501 12.4871C46.4501 12.6649 46.3923 12.838 46.2854 12.9802C46.1786 13.1224 46.0285 13.226 45.8576 13.2755H42.9824C42.632 13.2736 42.2858 13.1996 41.9652 13.0582C41.6446 12.9168 41.3565 12.711 41.1188 12.4535L39.4748 10.6799C39.1813 10.3523 38.7713 10.1525 38.3324 10.1234C37.8935 10.0942 37.4607 10.238 37.1264 10.5239L35.6732 11.7395C35.2013 12.1318 34.6069 12.3466 33.9932 12.3466C33.3795 12.3466 32.7851 12.1318 32.3132 11.7395L30.4328 10.2359C30.1311 9.99031 29.7539 9.85623 29.3648 9.85623C28.9758 9.85623 28.5986 9.99031 28.2968 10.2359L26.4908 11.7071C26.0178 12.1072 25.4184 12.3268 24.7988 12.3268C24.1793 12.3268 23.5798 12.1072 23.1068 11.7071L21.686 10.5071C21.3519 10.2218 20.9198 10.0777 20.4813 10.1053C20.0428 10.1328 19.6322 10.3298 19.3364 10.6547L17.6936 12.4463C17.2016 12.9791 16.5056 13.2791 15.7796 13.2743H15.8048ZM46.7696 20.1335C46.7748 20.2704 46.7528 20.407 46.7048 20.5353C46.6568 20.6637 46.5838 20.7812 46.49 20.8811C46.4013 20.9811 46.2925 21.0613 46.1707 21.1165C46.0489 21.1717 45.9169 21.2007 45.7832 21.2015H44.6168C44.2311 21.1999 43.8498 21.1188 43.4967 20.9634C43.1437 20.8079 42.8264 20.5814 42.5648 20.2979L40.4696 18.1211C40.1744 17.7912 39.7621 17.5894 39.3204 17.5587C38.8787 17.528 38.4425 17.6708 38.1044 17.9567L36.4604 19.3127C35.9105 19.7796 35.2145 20.0393 34.4932 20.0467C33.7718 20.0542 33.0706 19.8089 32.5112 19.3535L30.4244 17.7095C30.1214 17.4599 29.7411 17.3234 29.3486 17.3234C28.9561 17.3234 28.5758 17.4599 28.2728 17.7095L26.2604 19.3535C25.7045 19.8231 25.0003 20.0807 24.2726 20.0807C23.5449 20.0807 22.8407 19.8231 22.2848 19.3535L20.7164 17.9567C20.3796 17.6707 19.9451 17.5264 19.5041 17.5539C19.0631 17.5814 18.6499 17.7787 18.3512 18.1043L16.304 20.2895C16.0466 20.5777 15.7334 20.8107 15.3834 20.9745C15.0334 21.1383 14.6538 21.2294 14.2676 21.2423H13.2236C13.0882 21.24 12.9546 21.2109 12.8305 21.1567C12.7063 21.1025 12.5941 21.0243 12.5003 20.9266C12.4065 20.8289 12.333 20.7136 12.2839 20.5874C12.2349 20.4612 12.2112 20.3265 12.2144 20.1911C12.2057 20.0514 12.2251 19.9114 12.2715 19.7794C12.3179 19.6474 12.3904 19.5261 12.4847 19.4226C12.579 19.3192 12.6931 19.2358 12.8202 19.1773C12.9473 19.1188 13.0849 19.0865 13.2248 19.0823H14.2676C14.3827 19.0736 14.4949 19.0423 14.5978 18.9902C14.7008 18.9381 14.7924 18.8662 14.8676 18.7787L16.9124 16.6019C17.5517 15.9037 18.4383 15.4828 19.3834 15.429C20.3285 15.3752 21.2573 15.6927 21.9716 16.3139L23.5484 17.6459C23.758 17.8248 24.0246 17.9231 24.3002 17.9231C24.5758 17.9231 24.8424 17.8248 25.052 17.6459L27.0644 16.0019C27.7132 15.4743 28.5238 15.1863 29.36 15.1863C30.1962 15.1863 31.0069 15.4743 31.6556 16.0019L33.7412 17.6459C33.951 17.821 34.2156 17.917 34.4888 17.917C34.7621 17.917 35.0267 17.821 35.2364 17.6459L36.8792 16.2899C37.5986 15.6798 38.5273 15.3736 39.4685 15.4363C40.4097 15.4991 41.2895 15.9257 41.9216 16.6259L43.9676 18.8195C44.0452 18.9056 44.1402 18.9743 44.2464 19.021C44.3525 19.0678 44.4673 19.0915 44.5832 19.0907H45.758C46.0259 19.1013 46.279 19.2164 46.4632 19.4113C46.6473 19.6062 46.7478 19.8654 46.7432 20.1335H46.7672H46.7696Z" fill="white"/>
</svg>
