<svg width="63" height="56" viewBox="0 0 63 56" fill="none" xmlns="http://www.w3.org/2000/svg">
<path fill-rule="evenodd" clip-rule="evenodd" d="M29.5784 25.1099H27.5492V28.9847H23.75V25.1099H15.1676V21.4031L22.2764 10.3751H27.5492V22.0703H29.57L29.5784 25.1099ZM42.452 28.9847L36.1592 19.7159H36.1028V28.9847H32.3036V10.4483H36.1028V19.1423H36.1592L42.2756 10.4303H46.7984L40.19 19.4111L47.1416 29.0027L42.452 28.9847ZM18.632 22.0703H23.7572V13.8227H23.702L18.632 22.0703ZM36.9452 48.1031C37.9819 50.1083 39.2246 52.0001 40.6532 53.7479C41.6535 54.7335 43.0013 55.2861 44.4056 55.2863C45.2492 55.2863 47.9456 55.2863 47.7704 52.5059C47.6024 49.8371 45.9164 39.3179 45.8516 39.2531C45.5661 37.8325 44.8059 36.5513 43.6959 35.6199C42.5859 34.6885 41.1922 34.1624 39.7436 34.1279C37.7888 34.1279 36.1196 35.5079 34.4252 36.5555H27.8816C26.1764 35.5091 24.518 34.1279 22.562 34.1279C21.111 34.1592 19.7136 34.6824 18.5989 35.6118C17.4841 36.5413 16.7181 37.8218 16.4264 39.2435C16.4264 39.3083 14.7032 49.8275 14.5736 52.5059C14.3972 55.2863 17.0936 55.2863 17.9372 55.2863C19.3509 55.2861 20.7069 54.726 21.7088 53.7287C23.1373 51.9813 24.3801 50.0899 25.4168 48.0851L36.9452 48.1031ZM62.5448 7.4375V7.2059C62.5448 6.9659 62.4704 6.7427 62.4152 6.5111C62.4099 6.46164 62.4099 6.41176 62.4152 6.3623C62.34 6.10046 62.2564 5.84113 62.1644 5.5847L62.0804 5.3987C61.9974 5.19683 61.9049 4.99901 61.8032 4.8059C61.7687 4.74581 61.7378 4.6837 61.7108 4.6199C61.5797 4.38591 61.4342 4.16028 61.2752 3.9443L61.1912 3.8243L60.9224 3.4811L60.7748 3.3131L60.5792 3.1007L60.1628 2.7023L59.9684 2.5163C59.755 2.34144 59.5353 2.17452 59.3096 2.0159C58.9007 1.74283 58.4663 1.51014 58.0124 1.3211C57.7104 1.1945 57.4011 1.0863 57.086 0.997099L56.8448 0.940699L56.6048 0.875899C56.0978 0.771704 55.5816 0.718638 55.064 0.717499H7.7528C7.2368 0.717499 6.7208 0.770298 6.21441 0.874698L5.9648 0.939499L5.7236 0.995899C5.408 1.0847 5.09961 1.1927 4.7972 1.3199C4.08571 1.61158 3.42539 2.01507 2.8412 2.5151L2.6468 2.7011C2.50095 2.82675 2.36158 2.95972 2.2292 3.0995L2.0252 3.3119L1.8776 3.4799C1.7852 3.5903 1.7012 3.7115 1.6184 3.8219C1.42605 4.07425 1.25277 4.34059 1.1 4.6187C1.064 4.6787 1.034 4.7411 1.0064 4.8047C0.904285 4.99779 0.811381 5.19561 0.728005 5.3975L0.644004 5.5835C0.54517 5.83839 0.45867 6.09789 0.384804 6.3611V6.5099C0.328404 6.7379 0.284005 6.9707 0.255205 7.2059C0.250093 7.28261 0.250093 7.35958 0.255205 7.4363C0.255205 7.7147 0.200005 8.0015 0.200005 8.2883V37.7243C0.209532 39.7408 1.01925 41.6711 2.45122 43.0909C3.8832 44.5107 5.82028 45.304 7.83681 45.2963H11.7944C11.9984 43.9703 12.2024 42.6635 12.3776 41.5883H7.7444C6.72085 41.5912 5.73797 41.1878 5.01151 40.4667C4.28505 39.7457 3.87437 38.7658 3.8696 37.7423V8.2895C3.8708 8.0591 3.896 7.8287 3.944 7.6031V7.4279L4.0088 7.1951C4.0292 7.1207 4.0544 7.0463 4.0832 6.9731C4.1084 6.8999 4.1396 6.8291 4.1756 6.7595C4.2008 6.6875 4.23201 6.6155 4.26801 6.5471C4.30542 6.47761 4.34545 6.40956 4.388 6.3431C4.4264 6.2759 4.466 6.2111 4.5092 6.1487L4.6484 5.9627L4.7876 5.7875L4.94481 5.6111L5.1128 5.4539L5.29761 5.3051L5.47281 5.1659L5.64921 5.0543C5.74133 4.99226 5.83755 4.93653 5.9372 4.8875L6.1124 4.8035L6.326 4.7207C6.4844 4.6607 6.64521 4.6079 6.8084 4.5647L7.0124 4.5167C7.244 4.4771 7.4804 4.4555 7.7156 4.4519H54.9824C55.2152 4.4543 55.448 4.4759 55.6772 4.5167L55.8812 4.5647C56.0444 4.6067 56.2052 4.6595 56.3624 4.7207C56.438 4.7447 56.5124 4.7723 56.5856 4.8047L56.7524 4.8887C56.8544 4.9367 56.954 4.9919 57.0488 5.0543L57.2156 5.1659L57.4004 5.3051L57.5768 5.4539L57.7448 5.6099C57.8012 5.6651 57.8528 5.7239 57.9008 5.7875C57.956 5.8415 58.0052 5.9003 58.0496 5.9627L58.1888 6.1487L58.3088 6.3431L58.4204 6.5471C58.46 6.6155 58.4936 6.6863 58.5224 6.7595C58.5224 6.8255 58.5872 6.8987 58.6148 6.9731C58.6412 7.0451 58.6628 7.1207 58.6796 7.1951C58.7055 7.27143 58.7272 7.34915 58.7444 7.4279C58.7496 7.48618 58.7496 7.54481 58.7444 7.6031C58.7876 7.8299 58.8128 8.0591 58.8188 8.2895V37.7231C58.8144 38.7466 58.404 39.7266 57.6777 40.4479C56.9515 41.1692 55.9688 41.5728 54.9452 41.5703H49.9592C50.1344 42.6635 50.3384 43.9703 50.5328 45.2771H54.9728C55.9708 45.2807 56.9597 45.0877 57.8832 44.7092C58.8066 44.3306 59.6464 43.7739 60.3546 43.0708C61.0629 42.3676 61.6257 41.5319 62.011 40.6112C62.3962 39.6906 62.5964 38.7031 62.6 37.7051V8.2895C62.6 8.0039 62.582 7.7195 62.5448 7.4375Z" fill="white"/>
</svg>
