<svg width="122" height="20" viewBox="0 0 122 20" fill="none" xmlns="http://www.w3.org/2000/svg">
<path d="M41.9383 12.2564C41.9383 11.8566 41.9673 11.7699 42.1952 11.5419L45.0241 8.91373C45.1092 8.82867 45.1381 8.74192 45.1381 8.62794V8.4C45.1381 8.17205 44.9374 8.00024 44.7383 8.00024H42.3381C42.1102 8.00024 41.9383 7.82843 41.9383 7.60048V0.399757C41.9383 0.17181 42.1102 0 42.3381 0H46.1094C46.3102 0 46.5092 0.17181 46.5092 0.399757V6.79927C46.5092 7.02722 46.681 7.19903 46.9089 7.19903H47.1369C47.2509 7.19903 47.3376 7.17011 47.4227 7.08505L50.4795 4.25613C50.7075 4.02819 50.7942 3.99927 51.1651 3.99927H54.3359C56.7362 3.99927 57.9354 5.19854 57.9354 7.59878V11.8277C57.9354 12.2275 57.9065 12.3414 57.6786 12.5422L49.908 19.7412C49.68 19.9691 49.5933 19.998 49.1935 19.998H45.5362C43.1359 19.998 41.9366 18.7988 41.9366 16.3985V12.2564H41.9383ZM52.9665 8.00024H46.9106C46.6827 8.00024 46.5109 8.17205 46.5109 8.4V15.599C46.5109 15.827 46.6827 15.9988 46.9106 15.9988H52.9665C53.1673 15.9988 53.3663 15.827 53.3663 15.599V8.4C53.3663 8.17205 53.1656 8.00024 52.9665 8.00024Z" fill="white"/>
<path d="M58.6526 16.3985V12.1696C58.6526 11.7699 58.6815 11.6848 58.9094 11.4552L66.68 4.25613C66.908 4.02819 66.9947 3.99927 67.3945 3.99927H71.3376C73.7379 3.99927 74.9371 5.19854 74.9371 7.59878V11.8277C74.9371 12.2275 74.9082 12.3125 74.6803 12.5422L66.9097 19.7412C66.6817 19.9691 66.595 19.998 66.1952 19.998H62.2521C59.8519 19.998 58.6526 18.7988 58.6526 16.3985ZM63.6232 15.9988H69.9649C70.1928 15.9988 70.3646 15.827 70.3646 15.599V8.39999C70.3646 8.17205 70.1928 8.00024 69.9649 8.00024H63.6232C63.4225 8.00024 63.2234 8.17205 63.2234 8.39999V15.599C63.2234 15.827 63.4225 15.9988 63.6232 15.9988Z" fill="white"/>
<path d="M75.6482 16.3985V12.1696C75.6482 11.7699 75.6771 11.6848 75.9051 11.4552L83.6757 4.25613C83.9036 4.02819 83.9904 3.99927 84.3901 3.99927H88.3332C90.7335 3.99927 91.9328 5.19854 91.9328 7.59878V11.8277C91.9328 12.2275 91.9038 12.3125 91.6759 12.5422L83.9053 19.7412C83.6774 19.9691 83.5906 19.998 83.1908 19.998H79.2477C76.8475 19.998 75.6482 18.7988 75.6482 16.3985ZM80.6188 15.9988H86.9605C87.1884 15.9988 87.3602 15.827 87.3602 15.599V8.39999C87.3602 8.17205 87.1884 8.00024 86.9605 8.00024H80.6188C80.4181 8.00024 80.219 8.17205 80.219 8.39999V15.599C80.219 15.827 80.4198 15.9988 80.6188 15.9988Z" fill="white"/>
<path d="M90.2174 19.3415L93.4171 16.3986C93.674 16.1707 93.9309 15.9989 94.4463 15.9989H101.989C102.19 15.9989 102.389 15.8271 102.389 15.5991V11.2852C102.389 10.9994 102.561 10.8565 102.989 10.8565H106.504C106.761 10.8565 106.903 10.9994 106.903 11.2562V12.2565C106.903 12.4572 106.846 12.6001 106.703 12.7413L98.9899 19.8842C98.9049 19.9692 98.8181 19.9982 98.7041 19.9982H90.4759C89.9911 19.9982 89.8482 19.6835 90.2191 19.3415H90.2174ZM92.8745 11.7989C92.8745 11.5982 92.9323 11.4553 93.0752 11.3124L100.817 4.11335C100.902 4.02829 100.989 3.99937 101.103 3.99937H108.873V0.685646C108.873 0.457699 109.045 0.285889 109.273 0.285889H112.473C113.243 0.285889 113.444 0.457699 113.444 0.685646V6.79937C113.444 7.05624 113.558 7.19913 113.788 7.19913C113.931 7.19913 114.045 7.17021 114.187 7.02732L117.302 4.11335C117.387 4.02829 117.474 3.99937 117.559 3.99937H121.558C122.016 3.99937 122.13 4.39913 121.844 4.68492L118.53 7.88467C118.445 7.96972 118.359 7.99864 118.245 7.99864H113.846C113.618 7.99864 113.446 8.17045 113.446 8.3984V15.5974C113.446 15.8254 113.618 15.9972 113.846 15.9972H121.558C122.016 15.9972 122.13 16.3969 121.844 16.6827L118.53 19.8825C118.445 19.9675 118.359 19.9965 118.245 19.9965H112.474C110.074 19.9965 108.875 18.7972 108.875 16.3969V11.855C108.875 11.741 108.904 11.6543 108.989 11.5692L111.961 8.74032C112.075 8.62635 112.133 8.56851 112.133 8.36948C112.133 8.14154 111.99 7.99864 111.733 7.99864H109.248C109.02 7.99864 108.848 7.82683 108.848 7.59889V5.19864C108.848 4.99792 108.676 4.79889 108.448 4.79889H108.22C108.106 4.79889 108.021 4.82781 107.934 4.91286L105.163 7.88467C105.078 7.96972 104.991 7.99864 104.877 7.99864H97.8213C97.6222 7.99864 97.4215 8.17045 97.4215 8.3984V12.7124C97.4215 12.9982 97.2497 13.141 96.821 13.141H93.2776C93.0208 13.141 92.8779 12.9982 92.8779 12.7413V11.7989H92.8745Z" fill="white"/>
<path fill-rule="evenodd" clip-rule="evenodd" d="M8.91257 3.99952L31.6725 3.99951V4.00291C34.0728 4.00291 35.272 5.20218 35.272 7.60243V11.8296C35.272 12.2294 35.2431 12.3162 35.0152 12.5441L27.2429 19.7431C27.0149 19.9711 26.9299 20 26.5301 20L3.77017 20C1.36992 20 0.170654 18.799 0.170654 16.4005V12.1716C0.170654 11.7718 0.199573 11.6851 0.427519 11.4571L8.19811 4.25639C8.42606 4.02844 8.51281 3.99952 8.91257 3.99952ZM16.5563 14.0464C17.5109 14.0464 18.0762 13.6251 18.0762 12.9212C18.0762 12.4146 17.7829 12.0573 17.0576 11.8706L16.4017 11.716C16.0711 11.6253 15.9377 11.4813 15.9377 11.2627C15.9377 10.9907 16.1617 10.8147 16.535 10.8147C16.871 10.8147 17.1376 10.964 17.1963 11.348H17.9855C17.9269 10.6601 17.4256 10.2601 16.5563 10.2601C15.6338 10.2601 15.1111 10.6814 15.1111 11.332C15.1111 11.8333 15.4044 12.1799 16.0231 12.3399L16.6737 12.4892C17.0736 12.5959 17.2336 12.7505 17.2336 13.0065C17.2336 13.3105 16.9776 13.4918 16.5883 13.4918C16.1724 13.4918 15.9111 13.3105 15.8524 12.9372H15.0525C15.1165 13.6678 15.6338 14.0464 16.5563 14.0464ZM9.7228 13.9984H8.2936V10.3188H9.7228C10.8907 10.3188 11.408 10.9427 11.408 12.1586C11.408 13.3745 10.8907 13.9984 9.7228 13.9984ZM9.09352 10.9587V13.3585H9.68547C10.3094 13.3585 10.5707 12.9425 10.5707 12.1586C10.5707 11.3693 10.3094 10.9587 9.68547 10.9587H9.09352ZM14.5879 13.9984H12.0601V10.3188H14.5612V10.9534H12.8014V11.8173H14.3052V12.4199H12.8014V13.3691H14.5879V13.9984ZM19.4874 13.9984H18.6875V10.3188H19.4874V13.9984ZM21.6954 14.0517C22.3406 14.0517 22.6553 13.7211 22.8099 13.3585H22.9166L22.8259 13.7104V13.9984H23.3859V12.0306H21.7167V12.5372H22.5966C22.5593 13.0705 22.3246 13.4118 21.8394 13.4118C21.2901 13.4118 20.9861 12.9692 20.9861 12.1693C20.9861 11.348 21.2901 10.9054 21.8287 10.9054C22.234 10.9054 22.4953 11.1667 22.57 11.5933H23.3912C23.3059 10.7721 22.7566 10.2654 21.8287 10.2654C20.7568 10.2654 20.1595 10.948 20.1595 12.1586C20.1595 13.3691 20.7621 14.0517 21.6954 14.0517ZM24.8099 13.9984H24.09V10.3188H24.8899L26.2871 12.4572L26.4044 12.7932H26.5217L26.4737 12.4306L26.4524 10.3188H27.167V13.9984H26.3724L24.9859 11.8546L24.8632 11.524H24.7512L24.7939 11.8866L24.8099 13.9984Z" fill="white"/>
</svg>
